<mxfile host="app.diagrams.net" modified="2023-04-28T15:37:28.522Z" agent="Mozilla/5.0 (Windows NT 10.0; Win64; x64) AppleWebKit/537.36 (KHTML, like Gecko) Chrome/112.0.0.0 Safari/537.36" etag="AbWCO-8k2FTAco-HsaEA" version="21.2.2" type="device">
  <diagram name="Page-1" id="D29pGEQHQrqoXzZbhyBa">
    <mxGraphModel dx="1050" dy="541" grid="0" gridSize="10" guides="1" tooltips="1" connect="1" arrows="1" fold="1" page="0" pageScale="1" pageWidth="850" pageHeight="1100" math="0" shadow="0">
      <root>
        <mxCell id="0" />
        <mxCell id="1" parent="0" />
        <mxCell id="zba-jAjFFjgz56tZfDDK-9" value="&lt;b&gt;S0&lt;/b&gt;&lt;br&gt;RE = 0&lt;br&gt;RA = X&lt;br&gt;WE = 1&lt;br&gt;WA = 0&lt;br&gt;E_R2 = 1&amp;nbsp;&lt;br&gt;CTL1 = X&amp;nbsp;&lt;br&gt;CTL2[1..0] = XX&lt;br&gt;ET1 = 0&lt;br&gt;ET2 = 1&lt;br&gt;ET3 = 0&lt;br&gt;ET4 = 0&lt;br&gt;ET5 = 1&lt;br&gt;ET6 = 0&lt;br&gt;DONE = 0" style="ellipse;whiteSpace=wrap;html=1;" parent="1" vertex="1">
          <mxGeometry x="80" y="80" width="160" height="240" as="geometry" />
        </mxCell>
        <mxCell id="zba-jAjFFjgz56tZfDDK-13" value="&lt;b style=&quot;border-color: var(--border-color);&quot;&gt;S1&lt;/b&gt;&lt;br style=&quot;border-color: var(--border-color);&quot;&gt;RE = 1&lt;br style=&quot;border-color: var(--border-color);&quot;&gt;RA = 0&lt;br style=&quot;border-color: var(--border-color);&quot;&gt;WE = 1&lt;br style=&quot;border-color: var(--border-color);&quot;&gt;WA = 0&lt;br style=&quot;border-color: var(--border-color);&quot;&gt;E_R2 = 1&amp;nbsp;&lt;br style=&quot;border-color: var(--border-color);&quot;&gt;CTL1 = 0&amp;nbsp;&lt;br style=&quot;border-color: var(--border-color);&quot;&gt;CTL2[1..0] = 11&lt;br style=&quot;border-color: var(--border-color);&quot;&gt;ET1 = 1&lt;br style=&quot;border-color: var(--border-color);&quot;&gt;ET2 = 0&lt;br style=&quot;border-color: var(--border-color);&quot;&gt;ET3 = 0&lt;br style=&quot;border-color: var(--border-color);&quot;&gt;ET4 = 1&lt;br style=&quot;border-color: var(--border-color);&quot;&gt;ET5 = 0&lt;br style=&quot;border-color: var(--border-color);&quot;&gt;ET6 = 0&lt;br style=&quot;border-color: var(--border-color);&quot;&gt;DONE = 0" style="ellipse;whiteSpace=wrap;html=1;" parent="1" vertex="1">
          <mxGeometry x="360" y="80" width="160" height="240" as="geometry" />
        </mxCell>
        <mxCell id="zba-jAjFFjgz56tZfDDK-14" value="&lt;b style=&quot;border-color: var(--border-color);&quot;&gt;S2&lt;/b&gt;&lt;br style=&quot;border-color: var(--border-color);&quot;&gt;RE = 1&lt;br style=&quot;border-color: var(--border-color);&quot;&gt;RA = 0&lt;br style=&quot;border-color: var(--border-color);&quot;&gt;WE = 1&lt;br style=&quot;border-color: var(--border-color);&quot;&gt;WA = 0&lt;br style=&quot;border-color: var(--border-color);&quot;&gt;E_R2 = 1&amp;nbsp;&lt;br style=&quot;border-color: var(--border-color);&quot;&gt;CTL1 = 1&amp;nbsp;&lt;br style=&quot;border-color: var(--border-color);&quot;&gt;CTL2[1..0] = 01&lt;br style=&quot;border-color: var(--border-color);&quot;&gt;ET1 = 1&lt;br style=&quot;border-color: var(--border-color);&quot;&gt;ET2 = 0&lt;br style=&quot;border-color: var(--border-color);&quot;&gt;ET3 = 0&lt;br style=&quot;border-color: var(--border-color);&quot;&gt;ET4 = 1&lt;br style=&quot;border-color: var(--border-color);&quot;&gt;ET5 = 0&lt;br style=&quot;border-color: var(--border-color);&quot;&gt;ET6 = 0&lt;br style=&quot;border-color: var(--border-color);&quot;&gt;DONE = 0" style="ellipse;whiteSpace=wrap;html=1;" parent="1" vertex="1">
          <mxGeometry x="640" y="80" width="160" height="240" as="geometry" />
        </mxCell>
        <mxCell id="zba-jAjFFjgz56tZfDDK-23" value="" style="edgeStyle=orthogonalEdgeStyle;rounded=0;orthogonalLoop=1;jettySize=auto;html=1;" parent="1" source="zba-jAjFFjgz56tZfDDK-15" target="zba-jAjFFjgz56tZfDDK-19" edge="1">
          <mxGeometry relative="1" as="geometry" />
        </mxCell>
        <mxCell id="zba-jAjFFjgz56tZfDDK-15" value="&lt;b style=&quot;border-color: var(--border-color);&quot;&gt;S3&lt;/b&gt;&lt;br style=&quot;border-color: var(--border-color);&quot;&gt;RE = 1&lt;br style=&quot;border-color: var(--border-color);&quot;&gt;RA = 0&lt;br style=&quot;border-color: var(--border-color);&quot;&gt;WE = 1&lt;br style=&quot;border-color: var(--border-color);&quot;&gt;WA = 1&lt;br style=&quot;border-color: var(--border-color);&quot;&gt;E_R2 = 1&amp;nbsp;&lt;br style=&quot;border-color: var(--border-color);&quot;&gt;CTL1 = X&amp;nbsp;&lt;br style=&quot;border-color: var(--border-color);&quot;&gt;CTL2[1..0] = XX&lt;br style=&quot;border-color: var(--border-color);&quot;&gt;ET1 = 0&lt;br style=&quot;border-color: var(--border-color);&quot;&gt;ET2 = 0&lt;br style=&quot;border-color: var(--border-color);&quot;&gt;ET3 = 1&lt;br style=&quot;border-color: var(--border-color);&quot;&gt;ET4 = 0&lt;br style=&quot;border-color: var(--border-color);&quot;&gt;ET5 = 0&lt;br style=&quot;border-color: var(--border-color);&quot;&gt;ET6 = 1&lt;br style=&quot;border-color: var(--border-color);&quot;&gt;DONE = 0" style="ellipse;whiteSpace=wrap;html=1;" parent="1" vertex="1">
          <mxGeometry x="920" y="80" width="160" height="240" as="geometry" />
        </mxCell>
        <mxCell id="zba-jAjFFjgz56tZfDDK-27" value="" style="edgeStyle=orthogonalEdgeStyle;rounded=0;orthogonalLoop=1;jettySize=auto;html=1;" parent="1" source="zba-jAjFFjgz56tZfDDK-16" target="zba-jAjFFjgz56tZfDDK-9" edge="1">
          <mxGeometry relative="1" as="geometry" />
        </mxCell>
        <mxCell id="zba-jAjFFjgz56tZfDDK-16" value="&lt;b style=&quot;border-color: var(--border-color);&quot;&gt;S7&lt;/b&gt;&lt;br style=&quot;border-color: var(--border-color);&quot;&gt;RE = 1&lt;br style=&quot;border-color: var(--border-color);&quot;&gt;RA = 0&lt;br style=&quot;border-color: var(--border-color);&quot;&gt;WE = 0&lt;br style=&quot;border-color: var(--border-color);&quot;&gt;WA = X&lt;br style=&quot;border-color: var(--border-color);&quot;&gt;E_R2 = 0&amp;nbsp;&lt;br style=&quot;border-color: var(--border-color);&quot;&gt;CTL1 = X&amp;nbsp;&lt;br style=&quot;border-color: var(--border-color);&quot;&gt;CTL2[1..0] = XX&lt;br style=&quot;border-color: var(--border-color);&quot;&gt;ET1 = 0&lt;br style=&quot;border-color: var(--border-color);&quot;&gt;ET2 = 0&lt;br style=&quot;border-color: var(--border-color);&quot;&gt;ET3 = 0&lt;br style=&quot;border-color: var(--border-color);&quot;&gt;ET4 = 0&lt;br style=&quot;border-color: var(--border-color);&quot;&gt;ET5 = 0&lt;br style=&quot;border-color: var(--border-color);&quot;&gt;ET6 = 0&lt;br style=&quot;border-color: var(--border-color);&quot;&gt;DONE = 1" style="ellipse;whiteSpace=wrap;html=1;" parent="1" vertex="1">
          <mxGeometry x="80" y="400" width="160" height="240" as="geometry" />
        </mxCell>
        <mxCell id="zba-jAjFFjgz56tZfDDK-17" value="&lt;b style=&quot;border-color: var(--border-color);&quot;&gt;S6&lt;/b&gt;&lt;br style=&quot;border-color: var(--border-color);&quot;&gt;RE = 1&lt;br style=&quot;border-color: var(--border-color);&quot;&gt;RA = 0&lt;br style=&quot;border-color: var(--border-color);&quot;&gt;WE = 1&lt;br style=&quot;border-color: var(--border-color);&quot;&gt;WA = 0&lt;br style=&quot;border-color: var(--border-color);&quot;&gt;E_R2 = 0&amp;nbsp;&lt;br style=&quot;border-color: var(--border-color);&quot;&gt;CTL1 = 1&amp;nbsp;&lt;br style=&quot;border-color: var(--border-color);&quot;&gt;CTL2[1..0] = XX&lt;br style=&quot;border-color: var(--border-color);&quot;&gt;ET1 = 1&lt;br style=&quot;border-color: var(--border-color);&quot;&gt;ET2 = 0&lt;br style=&quot;border-color: var(--border-color);&quot;&gt;ET3 = 0&lt;br style=&quot;border-color: var(--border-color);&quot;&gt;ET4 = 0&lt;br style=&quot;border-color: var(--border-color);&quot;&gt;ET5 = 0&lt;br style=&quot;border-color: var(--border-color);&quot;&gt;ET6 = 0&lt;br style=&quot;border-color: var(--border-color);&quot;&gt;DONE = 0" style="ellipse;whiteSpace=wrap;html=1;" parent="1" vertex="1">
          <mxGeometry x="360" y="400" width="160" height="240" as="geometry" />
        </mxCell>
        <mxCell id="zba-jAjFFjgz56tZfDDK-18" value="&lt;b style=&quot;border-color: var(--border-color);&quot;&gt;S5&lt;/b&gt;&lt;br style=&quot;border-color: var(--border-color);&quot;&gt;RE = 1&lt;br style=&quot;border-color: var(--border-color);&quot;&gt;RA = 1&lt;br style=&quot;border-color: var(--border-color);&quot;&gt;WE = 0&lt;br style=&quot;border-color: var(--border-color);&quot;&gt;WA = X&lt;br style=&quot;border-color: var(--border-color);&quot;&gt;E_R2 = 1&amp;nbsp;&lt;br style=&quot;border-color: var(--border-color);&quot;&gt;CTL1 = X&amp;nbsp;&lt;br style=&quot;border-color: var(--border-color);&quot;&gt;CTL2[1..0] = 00&lt;br style=&quot;border-color: var(--border-color);&quot;&gt;ET1 = 0&lt;br style=&quot;border-color: var(--border-color);&quot;&gt;ET2 = 0&lt;br style=&quot;border-color: var(--border-color);&quot;&gt;ET3 = 0&lt;br style=&quot;border-color: var(--border-color);&quot;&gt;ET4 = 1&lt;br style=&quot;border-color: var(--border-color);&quot;&gt;ET5 = 0&lt;br style=&quot;border-color: var(--border-color);&quot;&gt;ET6 = 0&lt;br style=&quot;border-color: var(--border-color);&quot;&gt;DONE = 0" style="ellipse;whiteSpace=wrap;html=1;" parent="1" vertex="1">
          <mxGeometry x="640" y="400" width="160" height="240" as="geometry" />
        </mxCell>
        <mxCell id="zba-jAjFFjgz56tZfDDK-19" value="&lt;b style=&quot;border-color: var(--border-color);&quot;&gt;S4&lt;/b&gt;&lt;br style=&quot;border-color: var(--border-color);&quot;&gt;RE = 1&lt;br style=&quot;border-color: var(--border-color);&quot;&gt;RA = 0&lt;br style=&quot;border-color: var(--border-color);&quot;&gt;WE = 0&lt;br style=&quot;border-color: var(--border-color);&quot;&gt;WA = X&lt;br style=&quot;border-color: var(--border-color);&quot;&gt;E_R2 = 1&amp;nbsp;&lt;br style=&quot;border-color: var(--border-color);&quot;&gt;CTL1 = X&amp;nbsp;&lt;br style=&quot;border-color: var(--border-color);&quot;&gt;CTL2[1..0] = 10&lt;br style=&quot;border-color: var(--border-color);&quot;&gt;ET1 = 0&lt;br style=&quot;border-color: var(--border-color);&quot;&gt;ET2 = 0&lt;br style=&quot;border-color: var(--border-color);&quot;&gt;ET3 = 0&lt;br style=&quot;border-color: var(--border-color);&quot;&gt;ET4 = 1&lt;br style=&quot;border-color: var(--border-color);&quot;&gt;ET5 = 0&lt;br style=&quot;border-color: var(--border-color);&quot;&gt;ET6 = 0&lt;br style=&quot;border-color: var(--border-color);&quot;&gt;DONE = 0" style="ellipse;whiteSpace=wrap;html=1;" parent="1" vertex="1">
          <mxGeometry x="920" y="400" width="160" height="240" as="geometry" />
        </mxCell>
        <mxCell id="zba-jAjFFjgz56tZfDDK-20" value="" style="endArrow=classic;html=1;rounded=0;exitX=1;exitY=0.5;exitDx=0;exitDy=0;entryX=0;entryY=0.5;entryDx=0;entryDy=0;entryPerimeter=0;" parent="1" source="zba-jAjFFjgz56tZfDDK-9" target="zba-jAjFFjgz56tZfDDK-13" edge="1">
          <mxGeometry width="50" height="50" relative="1" as="geometry">
            <mxPoint x="450" y="280" as="sourcePoint" />
            <mxPoint x="500" y="230" as="targetPoint" />
          </mxGeometry>
        </mxCell>
        <mxCell id="zba-jAjFFjgz56tZfDDK-21" value="" style="endArrow=classic;html=1;rounded=0;exitX=1;exitY=0.5;exitDx=0;exitDy=0;entryX=0;entryY=0.5;entryDx=0;entryDy=0;entryPerimeter=0;" parent="1" edge="1">
          <mxGeometry width="50" height="50" relative="1" as="geometry">
            <mxPoint x="520" y="199.41" as="sourcePoint" />
            <mxPoint x="640" y="199.41" as="targetPoint" />
          </mxGeometry>
        </mxCell>
        <mxCell id="zba-jAjFFjgz56tZfDDK-22" value="" style="endArrow=classic;html=1;rounded=0;exitX=1;exitY=0.5;exitDx=0;exitDy=0;entryX=0;entryY=0.5;entryDx=0;entryDy=0;entryPerimeter=0;" parent="1" edge="1">
          <mxGeometry width="50" height="50" relative="1" as="geometry">
            <mxPoint x="800" y="199.41" as="sourcePoint" />
            <mxPoint x="920" y="199.41" as="targetPoint" />
          </mxGeometry>
        </mxCell>
        <mxCell id="zba-jAjFFjgz56tZfDDK-24" value="" style="endArrow=classic;html=1;rounded=0;exitX=0;exitY=0.5;exitDx=0;exitDy=0;entryX=1;entryY=0.5;entryDx=0;entryDy=0;" parent="1" source="zba-jAjFFjgz56tZfDDK-19" target="zba-jAjFFjgz56tZfDDK-18" edge="1">
          <mxGeometry width="50" height="50" relative="1" as="geometry">
            <mxPoint x="820" y="430" as="sourcePoint" />
            <mxPoint x="940" y="430" as="targetPoint" />
          </mxGeometry>
        </mxCell>
        <mxCell id="zba-jAjFFjgz56tZfDDK-25" value="" style="endArrow=classic;html=1;rounded=0;exitX=1;exitY=0.5;exitDx=0;exitDy=0;entryX=1;entryY=0.5;entryDx=0;entryDy=0;" parent="1" target="zba-jAjFFjgz56tZfDDK-17" edge="1">
          <mxGeometry width="50" height="50" relative="1" as="geometry">
            <mxPoint x="640" y="519.41" as="sourcePoint" />
            <mxPoint x="760" y="519.41" as="targetPoint" />
          </mxGeometry>
        </mxCell>
        <mxCell id="zba-jAjFFjgz56tZfDDK-26" value="" style="endArrow=classic;html=1;rounded=0;exitX=1;exitY=0.5;exitDx=0;exitDy=0;entryX=1;entryY=0.5;entryDx=0;entryDy=0;" parent="1" target="zba-jAjFFjgz56tZfDDK-16" edge="1">
          <mxGeometry width="50" height="50" relative="1" as="geometry">
            <mxPoint x="360" y="519.4100000000001" as="sourcePoint" />
            <mxPoint x="480" y="519.4100000000001" as="targetPoint" />
          </mxGeometry>
        </mxCell>
        <mxCell id="zba-jAjFFjgz56tZfDDK-28" value="" style="curved=1;endArrow=classic;html=1;rounded=0;exitX=0;exitY=0;exitDx=0;exitDy=0;entryX=0.5;entryY=0;entryDx=0;entryDy=0;" parent="1" source="zba-jAjFFjgz56tZfDDK-9" target="zba-jAjFFjgz56tZfDDK-9" edge="1">
          <mxGeometry width="50" height="50" relative="1" as="geometry">
            <mxPoint x="90" y="120" as="sourcePoint" />
            <mxPoint x="140" y="70" as="targetPoint" />
            <Array as="points">
              <mxPoint x="40" y="80" />
              <mxPoint x="70" y="20" />
              <mxPoint x="130" y="10" />
            </Array>
          </mxGeometry>
        </mxCell>
        <mxCell id="zba-jAjFFjgz56tZfDDK-30" value="START = 0" style="text;html=1;strokeColor=none;fillColor=none;align=center;verticalAlign=middle;whiteSpace=wrap;rounded=0;" parent="1" vertex="1">
          <mxGeometry x="50" y="40" width="70" height="30" as="geometry" />
        </mxCell>
      </root>
    </mxGraphModel>
  </diagram>
</mxfile>
